HIERARCHY
ROOT hip
{
  OFFSET 0 0 0
  CHANNELS 6 Xposition Yposition Zposition Zrotation Yrotation Xrotation
  JOINT abdomen
  {
    OFFSET 0 20.6881 -0.73152
    CHANNELS 3 Zrotation Xrotation Yrotation
    JOINT chest
    {
      OFFSET 0 11.7043 -0.48768
      CHANNELS 3 Zrotation Xrotation Yrotation
      JOINT neck
      {
        OFFSET 0 22.1894 -2.19456
        CHANNELS 3 Zrotation Xrotation Yrotation
        JOINT head
        {
          OFFSET -0.24384 7.07133 1.2192
          CHANNELS 3 Zrotation Xrotation Yrotation
          JOINT leftEye
          {
            OFFSET 4.14528 8.04674 8.04672
            CHANNELS 3 Zrotation Xrotation Yrotation
            End Site
            {
              OFFSET 1 0 0
            }
          }
          JOINT rightEye
          {
            OFFSET -3.6576 8.04674 8.04672
            CHANNELS 3 Zrotation Xrotation Yrotation
            End Site
            {
              OFFSET 1 0 0
            }
          }
        }
      }
      JOINT rCollar
      {
        OFFSET -2.68224 19.2634 -4.8768
        CHANNELS 3 Zrotation Xrotation Yrotation
        JOINT rShldr
        {
          OFFSET -8.77824 -1.95073 1.46304
          CHANNELS 3 Zrotation Xrotation Yrotation
          JOINT rForeArm
          {
            OFFSET -28.1742 -1.7115 0.48768
            CHANNELS 3 Zrotation Xrotation Yrotation
            JOINT rHand
            {
              OFFSET -22.5879 0.773209 7.07136
              CHANNELS 3 Zrotation Xrotation Yrotation
              JOINT rThumb1
              {
                OFFSET -1.2192 -0.487915 3.41376
                CHANNELS 3 Zrotation Xrotation Yrotation
                JOINT rThumb2
                {
                  OFFSET -3.37035 -0.52449 3.41376
                  CHANNELS 3 Zrotation Xrotation Yrotation
                  End Site
                  {
                    OFFSET -1.78271 -1.18214 1.43049
                  }
                }
              }
              JOINT rIndex1
              {
                OFFSET -7.75947 0.938293 5.60832
                CHANNELS 3 Zrotation Xrotation Yrotation
                JOINT rIndex2
                {
                  OFFSET -2.54057 -0.884171 1.56538
                  CHANNELS 3 Zrotation Xrotation Yrotation
                  End Site
                  {
                    OFFSET -1.62519 -0.234802 1.16502
                  }
                }
              }
              JOINT rMid1
              {
                OFFSET -8.24714 1.18213 3.41376
                CHANNELS 3 Zrotation Xrotation Yrotation
                JOINT rMid2
                {
                  OFFSET -3.10165 -0.590103 1.0647
                  CHANNELS 3 Zrotation Xrotation Yrotation
                  End Site
                  {
                    OFFSET -2.48547 -0.328903 0.83742
                  }
                }
              }
              JOINT rRing1
              {
                OFFSET -8.82822 0.546677 1.51678
                CHANNELS 3 Zrotation Xrotation Yrotation
                JOINT rRing2
                {
                  OFFSET -2.60934 -0.819778 -0.0198488
                  CHANNELS 3 Zrotation Xrotation Yrotation
                  End Site
                  {
                    OFFSET -2.33842 -0.294052 0.168128
                  }
                }
              }
              JOINT rPinky1
              {
                OFFSET -8.27202 -0.0477905 -0.4584
                CHANNELS 3 Zrotation Xrotation Yrotation
                JOINT rPinky2
                {
                  OFFSET -1.82734 -0.647385 -0.700984
                  CHANNELS 3 Zrotation Xrotation Yrotation
                  End Site
                  {
                    OFFSET -1.69225 -0.51767 -0.607171
                  }
                }
              }
            }
          }
        }
      }
      JOINT lCollar
      {
        OFFSET 2.68224 19.2634 -4.8768
        CHANNELS 3 Zrotation Xrotation Yrotation
        JOINT lShldr
        {
          OFFSET 8.77824 -1.95073 1.46304
          CHANNELS 3 Zrotation Xrotation Yrotation
          JOINT lForeArm
          {
            OFFSET 28.1742 -1.7115 0.48768
            CHANNELS 3 Zrotation Xrotation Yrotation
            JOINT lHand
            {
              OFFSET 22.5879 0.773209 7.07136
              CHANNELS 3 Zrotation Xrotation Yrotation
              JOINT lThumb1
              {
                OFFSET 1.2192 -0.487915 3.41376
                CHANNELS 3 Zrotation Xrotation Yrotation
                JOINT lThumb2
                {
                  OFFSET 3.37035 -0.52449 3.41376
                  CHANNELS 3 Zrotation Xrotation Yrotation
                  End Site
                  {
                    OFFSET 1.78271 -1.18214 1.43049
                  }
                }
              }
              JOINT lIndex1
              {
                OFFSET 7.75947 0.938293 5.60832
                CHANNELS 3 Zrotation Xrotation Yrotation
                JOINT lIndex2
                {
                  OFFSET 2.54057 -0.884171 1.56538
                  CHANNELS 3 Zrotation Xrotation Yrotation
                  End Site
                  {
                    OFFSET 1.62519 -0.234802 1.16502
                  }
                }
              }
              JOINT lMid1
              {
                OFFSET 8.24714 1.18213 3.41376
                CHANNELS 3 Zrotation Xrotation Yrotation
                JOINT lMid2
                {
                  OFFSET 3.10165 -0.590103 1.0647
                  CHANNELS 3 Zrotation Xrotation Yrotation
                  End Site
                  {
                    OFFSET 2.48547 -0.328903 0.83742
                  }
                }
              }
              JOINT lRing1
              {
                OFFSET 8.82822 0.546677 1.51678
                CHANNELS 3 Zrotation Xrotation Yrotation
                JOINT lRing2
                {
                  OFFSET 2.60934 -0.819778 -0.0198488
                  CHANNELS 3 Zrotation Xrotation Yrotation
                  End Site
                  {
                    OFFSET 2.33842 -0.294052 0.168128
                  }
                }
              }
              JOINT lPinky1
              {
                OFFSET 8.27202 -0.0477905 -0.4584
                CHANNELS 3 Zrotation Xrotation Yrotation
                JOINT lPinky2
                {
                  OFFSET 1.82734 -0.647385 -0.700984
                  CHANNELS 3 Zrotation Xrotation Yrotation
                  End Site
                  {
                    OFFSET 1.69225 -0.51767 -0.607171
                  }
                }
              }
            }
          }
        }
      }
    }
  }
  JOINT rButtock
  {
    OFFSET -8.77824 4.35084 1.2192
    CHANNELS 3 Zrotation Xrotation Yrotation
    JOINT rThigh
    {
      OFFSET 0 -1.70687 -2.19456
      CHANNELS 3 Zrotation Xrotation Yrotation
      JOINT rShin
      {
        OFFSET 0 -36.8199 0.73152
        CHANNELS 3 Zrotation Xrotation Yrotation
        JOINT rFoot
        {
          OFFSET 0.73152 -45.1104 -5.12064
          CHANNELS 3 Zrotation Xrotation Yrotation
          End Site
          {
            OFFSET -1.1221 -3.69964 12.103
          }
        }
      }
    }
  }
  JOINT lButtock
  {
    OFFSET 8.77824 4.35084 1.2192
    CHANNELS 3 Zrotation Xrotation Yrotation
    JOINT lThigh
    {
      OFFSET 0 -1.70687 -2.19456
      CHANNELS 3 Zrotation Xrotation Yrotation
      JOINT lShin
      {
        OFFSET 0 -36.8199 0.73152
        CHANNELS 3 Zrotation Xrotation Yrotation
        JOINT lFoot
        {
          OFFSET -0.73152 -45.1104 -5.12064
          CHANNELS 3 Zrotation Xrotation Yrotation
          End Site
          {
            OFFSET 1.1221 -3.69964 12.103
          }
        }
      }
    }
  }
}
MOTION
Frames:	5
Frame Time:	0.03333
-14.849200000000002 74.4361 -191.49 -11.5276 -24.7725 7.7087 6.88334 12.1604 11.4359 -0.976565 -7.073 3.26781 -3.28477 12.890700000000002 -0.300954 7.14384 -25.5164 1.20086 -0.0 0.0 0.0 -0.0 0.0 0.0 -1.4553500000000002e-13 -3.22515e-13 -1.44336e-13 54.87930000000001 46.0265 17.791100000000004 -19.019499999999997 -11.8268 36.348400000000005 -0.07933880000000001 8.0093 1.1331 1.24745e-09 -3.89712e-09 1.44961e-09 2.16812e-09 -6.750309999999999e-09 2.50302e-09 1.24745e-09 -3.89712e-09 1.44961e-09 7.730909999999999 5.47488 0.417314 1.2474600000000002e-09 -3.89712e-09 1.44962e-09 2.90554 0.965183 0.102902 1.2474600000000002e-09 -3.89711e-09 1.44962e-09 10.278600000000003 0.731801 0.0259123 1.24745e-09 -3.89711e-09 1.44962e-09 2.22167 -0.733487 -0.20892000000000002 -1.45587e-13 -3.22516e-13 -1.44589e-13 -62.375400000000006 30.5215 -15.3923 18.955500000000004 -11.751999999999999 -36.2009 0.0354195 5.36884 -0.756773 7.69198e-10 2.41905e-09 4.10765e-10 1.32697e-09 4.15855e-09 7.02626e-10 7.69191e-10 2.41905e-09 4.10772e-10 -7.730909999999999 5.47488 -0.417314 7.69198e-10 2.41905e-09 4.10767e-10 -2.90554 0.965183 -0.102902 7.691929999999999e-10 2.41905e-09 4.1075900000000003e-10 -10.278600000000003 0.731801 -0.0259123 7.69206e-10 2.41905e-09 4.1074899999999994e-10 -2.22167 -0.733487 0.20892000000000002 -2.03217e-16 0.0 -3.88251e-19 -3.19715 -8.14347 -12.166400000000001 -0.389164 47.377199999999995 1.5685999999999998 -16.367 -19.2029 -29.451500000000003 2.03217e-16 0.0 3.88251e-19 52.12970000000001 -53.2422 44.8038 1.02109 57.47260000000001 -0.9553720000000002 0.46295900000000006 4.98535 0.625227
-14.7836 74.2579 -191.341 -11.7016 -24.8899 7.7671 6.9969399999999995 12.3732 11.6124 -1.04829 -7.09416 3.3185 -3.30243 12.8899 -0.314148 7.165259999999998 -25.935900000000004 1.20553 -0.0 0.0 0.0 -0.0 0.0 0.0 -1.2587099999999998e-14 -2.82881e-13 -3.48867e-13 53.2504 46.6692 19.1777 -19.446499999999997 -12.3314 37.35190000000001 -0.0852578 8.298660000000002 1.1746099999999997 5.3126e-10 -3.4537999999999994e-09 1.7079999999999999e-09 9.31269e-10 -5.99642e-09 2.95709e-09 5.31261e-10 -3.4537999999999994e-09 1.7079999999999999e-09 7.730909999999999 5.47488 0.417314 5.31266e-10 -3.4537999999999994e-09 1.7080100000000002e-09 2.90554 0.965183 0.102902 5.31268e-10 -3.4537900000000003e-09 1.7079999999999999e-09 10.278600000000003 0.731801 0.0259123 5.3126e-10 -3.4537900000000003e-09 1.7079999999999999e-09 2.22167 -0.733487 -0.20892000000000002 -1.26357e-14 -2.82885e-13 -3.4915100000000005e-13 -61.434400000000004 30.6844 -16.4681 19.271 -12.1218 -36.9377 0.032594899999999996 5.14165 -0.724584 1.09089e-09 1.8120500000000002e-09 -4.11509e-12 1.88285e-09 3.1005600000000003e-09 -1.83397e-11 1.09089e-09 1.81204e-09 -4.10794e-12 -7.730909999999999 5.47488 -0.417314 1.09089e-09 1.81204e-09 -4.11539e-12 -2.90554 0.965183 -0.102902 1.09089e-09 1.81204e-09 -4.12083e-12 -10.278600000000003 0.731801 -0.0259123 1.0909e-09 1.8120500000000002e-09 -4.133010000000001e-12 -2.22167 -0.733487 0.20892000000000002 -2.03217e-16 0.0 -3.88251e-19 -3.25548 -8.157729999999999 -12.2208 -0.3916180000000001 47.5399 1.58319 -16.4611 -19.117099999999997 -29.677399999999995 2.03217e-16 0.0 3.88251e-19 53.009 -53.245999999999995 45.8522 1.0555400000000001 58.0978 -1.00049 0.46745900000000007 4.48863 0.9605890000000001
-14.710500000000001 74.058 -191.227 -11.8909 -24.9787 7.9626 7.09087 12.4624 11.8262 -1.1355300000000002 -7.08999 3.3768799999999994 -3.26765 12.881799999999998 -0.351108 7.13105 -26.3002 1.14105 -0.0 0.0 0.0 -0.0 0.0 0.0 8.46145e-14 -1.22089e-13 -3.02089e-13 51.578799999999994 47.2811 20.5818 -19.8546 -12.8307 38.3263 -0.0915098 8.59164 1.21672 -5.32649e-10 -1.3433e-09 9.81091e-10 -9.13417e-10 -2.34862e-09 1.70432e-09 -5.32643e-10 -1.3433e-09 9.81091e-10 7.730909999999999 5.47488 0.417314 -5.32643e-10 -1.3433e-09 9.81112e-10 2.90554 0.965183 0.102902 -5.32644e-10 -1.3433e-09 9.81103e-10 10.278600000000003 0.731801 0.0259123 -5.32649e-10 -1.34329e-09 9.811080000000001e-10 2.22167 -0.733487 -0.20892000000000002 8.45037e-14 -1.22093e-13 -3.0227100000000006e-13 -60.5348 30.798499999999994 -17.4485 19.5889 -12.503399999999997 -37.69049999999999 0.03217709999999999 5.111509999999999 -0.72031 2.69767e-10 -5.96699e-10 -3.1701500000000007e-10 4.6522e-10 -1.04487e-09 -5.52174e-10 2.69768e-10 -5.96693e-10 -3.17006e-10 -7.730909999999999 5.47488 -0.417314 2.69767e-10 -5.966969999999999e-10 -3.1701500000000007e-10 -2.90554 0.965183 -0.102902 2.6976299999999993e-10 -5.96696e-10 -3.1701200000000004e-10 -10.278600000000003 0.731801 -0.0259123 2.69776e-10 -5.96695e-10 -3.17025e-10 -2.22167 -0.733487 0.20892000000000002 -2.03217e-16 0.0 -3.88251e-19 -3.29195 -8.28317 -12.2446 -0.395888 47.7614 1.5993400000000002 -16.6434 -18.968000000000004 -30.0928 2.03217e-16 0.0 3.88251e-19 53.8979 -53.3292 46.766999999999996 1.0914000000000001 58.7146 -1.04376 0.4739180000000001 3.9939899999999997 1.0587
-14.6432 73.8648 -191.079 -11.9184 -25.1436 7.989699999999999 6.98641 12.5903 12.0047 -1.1612 -7.08488 3.4232300000000007 -3.23798 12.8533 -0.371332 7.10464 -26.6442 1.117 -0.0 0.0 0.0 -0.0 0.0 0.0 -9.30039e-15 -2.66972e-14 -6.74525e-14 49.8248 47.8257 22.0839 -20.2091 -13.2765 39.1917 -0.101452 9.05048 1.2827400000000002 -3.0299499999999994e-10 2.9100100000000004e-11 2.12342e-10 -5.24036e-10 4.940510000000001e-11 3.68629e-10 -3.0298799999999994e-10 2.90969e-11 2.12343e-10 7.730909999999999 5.47488 0.417314 -3.0299e-10 2.90983e-11 2.12362e-10 2.90554 0.965183 0.102902 -3.0299099999999996e-10 2.90979e-11 2.12354e-10 10.278600000000003 0.731801 0.0259123 -3.02997e-10 2.91015e-11 2.1236100000000004e-10 2.22167 -0.733487 -0.20892000000000002 -9.38907e-15 -2.67014e-14 -6.76023e-14 -59.7624 30.777899999999995 -18.2938 19.892799999999998 -12.877500000000001 -38.42029999999999 0.0314748 5.05546 -0.712369 2.7612700000000003e-10 -7.5691e-10 -3.36169e-10 4.77733e-10 -1.31291e-09 -5.82807e-10 2.76126e-10 -7.56908e-10 -3.3616e-10 -7.730909999999999 5.47488 -0.417314 2.76125e-10 -7.56914e-10 -3.3617e-10 -2.90554 0.965183 -0.102902 2.76119e-10 -7.56909e-10 -3.361620000000001e-10 -10.278600000000003 0.731801 -0.0259123 2.76135e-10 -7.56911e-10 -3.36174e-10 -2.22167 -0.733487 0.20892000000000002 -2.03217e-16 0.0 -3.88251e-19 -3.43364 -8.32628 -12.2062 -0.399913 48.0075 1.62124 -16.9469 -19.0856 -30.4875 2.03217e-16 0.0 3.88251e-19 54.4419 -53.4048 47.3911 1.12508 59.24900000000001 -1.07827 0.4873649999999999 3.51052 1.31195
-14.5632 73.6471 -190.97 -11.8715 -25.1888 8.0962 6.68345 12.757099999999998 12.1479 -1.1252999999999997 -7.07883 3.45756 -3.21342 12.804400000000001 -0.374822 7.08687 -26.968 1.1337599999999999 -0.0 0.0 0.0 -0.0 0.0 0.0 -2.94332e-13 3.2941600000000007e-15 3.55044e-13 47.9907 48.2992 23.6812 -20.5154 -13.674 39.9464 -0.11624799999999999 9.67513 1.37297 1.22022e-09 6.633960000000001e-10 -5.982519999999999e-10 2.09941e-09 1.19765e-09 -1.0499900000000002e-09 1.22023e-09 6.63391e-10 -5.98248e-10 7.730909999999999 5.47488 0.417314 1.22023e-09 6.63386e-10 -5.982409999999999e-10 2.90554 0.965183 0.102902 1.22023e-09 6.63394e-10 -5.98246e-10 10.278600000000003 0.731801 0.0259123 1.22022e-09 6.63397e-10 -5.98237e-10 2.22167 -0.733487 -0.20892000000000002 -2.94314e-13 3.2914900000000006e-15 3.54855e-13 -59.12449999999999 30.626600000000003 -19.0005 20.1836 -13.2444 -39.12720000000001 0.030509800000000007 4.97349 -0.700763 1.10997e-09 1.3314100000000003e-09 -6.15754e-11 1.92039e-09 2.29646e-09 -1.1023899999999998e-10 1.10996e-09 1.3314e-09 -6.15713e-11 -7.730909999999999 5.47488 -0.417314 1.10996e-09 1.33139e-09 -6.15809e-11 -2.90554 0.965183 -0.102902 1.10996e-09 1.3314e-09 -6.15717e-11 -10.278600000000003 0.731801 -0.0259123 1.10998e-09 1.3314100000000003e-09 -6.157909999999999e-11 -2.22167 -0.733487 0.20892000000000002 -2.03217e-16 0.0 -3.88251e-19 -3.68059 -8.287029999999998 -12.1056 -0.40384600000000004 48.27819999999999 1.64901 -17.377 -19.4675 -30.8645 2.03217e-16 0.0 3.88251e-19 54.637899999999995 -53.4792 47.7234 1.1558 59.7009 -1.10333 0.511579 3.0382 1.72013
